# xmcd CD database file
#
# Track frame offsets:
#	150
#	19705
#	43753
#	71159
#	89448
#	114724
#	155347
#	182541
#	209910
#	243514
#	266972
#
# Disc length: 3784 seconds
#
# Revision: 1
# Processed by: cddbd v1.5.2PL0 Copyright (c) Steve Scherf et al.
# Submitted via: CDex 1.51
#
DISCID=a40ec60b
DTITLE=Henning Sieverts - Four Tenors
DYEAR=2009
DGENRE=Jazz
TTITLE0=Twelve By Four
TTITLE1=Stairs
TTITLE2=Fivesix
TTITLE3=Sun On My Face
TTITLE4=Rolihlahla
TTITLE5=Gentle G
TTITLE6=Up, Down, Straight!
TTITLE7=Nightflight
TTITLE8=The Mooche
TTITLE9=Simple Song
TTITLE10=Dark Brown Boogie
EXTD=YEAR: 2009
EXTT0=
EXTT1=
EXTT2=
EXTT3=
EXTT4=
EXTT5=
EXTT6=
EXTT7=
EXTT8=
EXTT9=
EXTT10=
PLAYORDER=
